<svg width="35" height="35" viewBox="0 0 35 35" fill="none" xmlns="http://www.w3.org/2000/svg">
<g id="linkedin-logo">
<path id="Vector" d="M32.418 0.000132541H2.58197C1.90501 -0.00675695 1.25296 0.255186 0.768907 0.728485C0.284851 1.20178 0.0083229 1.84778 0 2.52472V32.4813C0.00982807 33.1572 0.287018 33.8018 0.770909 34.2738C1.2548 34.7459 1.90599 35.007 2.58197 35.0001H32.418C33.095 35.0055 33.7466 34.7427 34.2304 34.2691C34.7142 33.7955 34.9909 33.1496 35 32.4727V2.51612C34.9879 1.84116 34.7099 1.19824 34.2265 0.727116C33.743 0.25599 33.0931 -0.00526711 32.418 0.000132541Z" fill="#0076B2"/>
<path id="Vector_2" d="M5.18118 13.1194H10.3767V29.8362H5.18118V13.1194ZM7.78036 4.79974C8.37626 4.79974 8.95877 4.97648 9.4542 5.30761C9.94963 5.63873 10.3357 6.10935 10.5636 6.65995C10.7915 7.21054 10.851 7.81636 10.7346 8.40076C10.6181 8.98517 10.3309 9.5219 9.90936 9.94307C9.4878 10.3642 8.95079 10.6509 8.36627 10.7668C7.78175 10.8827 7.17599 10.8226 6.62562 10.5942C6.07524 10.3658 5.60499 9.97924 5.27434 9.48349C4.94369 8.98775 4.7675 8.40507 4.76807 7.80917C4.76883 7.01076 5.08653 6.2453 5.65136 5.68101C6.21619 5.11672 6.98195 4.79974 7.78036 4.79974ZM13.6357 13.1194H18.616V15.4145H18.6849C19.3791 14.1006 21.0718 12.7149 23.5992 12.7149C28.8607 12.7034 29.8361 16.1661 29.8361 20.6559V29.8362H24.6406V21.703C24.6406 19.7665 24.6062 17.2735 21.941 17.2735C19.2759 17.2735 18.8226 19.385 18.8226 21.5768V29.8362H13.6357V13.1194Z" fill="white"/>
</g>
</svg>
