<svg width="41" height="33" viewBox="0 0 41 33" fill="none" xmlns="http://www.w3.org/2000/svg">
<path id="twitter-logo" d="M36.8026 8.21511C36.8276 8.57332 36.8276 8.93122 36.8276 9.2926C36.8276 20.3023 28.3659 33 12.8939 33V32.9937C8.32303 33 3.84693 31.7032 0 29.258C0.664648 29.3373 1.3325 29.3769 2.00195 29.3785C5.79032 29.3815 9.46973 28.1229 12.4489 25.805C10.6936 25.7721 8.99254 25.1967 7.58353 24.1593C6.17453 23.1218 5.12805 21.6742 4.5904 20.0187C5.85147 20.2598 7.15066 20.21 8.38834 19.8749C4.46387 19.0897 1.64064 15.6744 1.64064 11.7081V11.6024C2.81052 12.248 4.11987 12.6057 5.45845 12.6453C1.76172 10.1984 0.623008 5.32783 2.85495 1.52012C4.96673 4.09413 7.60153 6.19933 10.5882 7.69898C13.5749 9.19864 16.8466 10.0592 20.1909 10.2248C19.8575 8.80296 19.9069 7.31937 20.334 5.92237C20.7611 4.52536 21.551 3.26391 22.6246 2.26415C26.0126 -0.890598 31.341 -0.728784 34.5255 2.62553C36.4093 2.25708 38.2159 1.57293 39.8674 0.602536C39.2394 2.53184 37.9254 4.16955 36.1697 5.21107C37.8371 5.01633 39.4655 4.57406 41 3.89911C39.8712 5.57361 38.4498 7.03518 36.8026 8.21511Z" fill="#1D9BF0"/>
</svg>
