<svg width="45" height="31" viewBox="0 0 45 31" fill="none" xmlns="http://www.w3.org/2000/svg">
<path id="youtube-logo" d="M44.0606 4.78143C43.7992 3.86028 43.301 3.02128 42.6141 2.34565C41.9273 1.67003 41.0751 1.18068 40.1402 0.924981C36.6305 4.42202e-05 22.5215 4.44438e-05 22.5215 4.44438e-05C22.5215 4.44438e-05 8.43914 -0.0221432 4.89289 0.924981C3.95941 1.1818 3.10893 1.67167 2.42364 2.34723C1.73834 3.02279 1.24142 3.8612 0.980905 4.78143C0.314418 8.3234 -0.0138367 11.9192 0.000446738 15.5215C-0.00605649 19.1066 0.322147 22.6846 0.980905 26.2103C1.24227 27.131 1.73933 27.97 2.42439 28.6468C3.10944 29.3236 3.95948 29.8154 4.89289 30.0751C8.40257 31 22.5215 31 22.5215 31C22.5215 31 36.5953 31 40.1402 30.0751C41.0751 29.8165 41.9268 29.3252 42.6134 28.6484C43.3 27.9715 43.7984 27.1319 44.0606 26.2103C44.7063 22.6867 45.0214 19.1034 44.9989 15.5215C45.0214 11.9161 44.7133 8.32725 44.0606 4.78143ZM18.0144 22.1597V8.8542L29.7588 15.5215L18.0144 22.1597Z" fill="black"/>
</svg>
